<svg xmlns="http://www.w3.org/2000/svg" viewBox="0 0 500 500" width="500" height="500">
  <path fill="#3a61ae" fill-rule="evenodd" d="M 317.0 439.5 L 312.0 439.5 L 186.0 366.5 L 182.5 362.0 L 182.5 307.0 L 184.0 305.5 L 186.0 306.5 L 313.0 380.5 L 319.0 379.5 L 326.0 374.5 L 424.0 318.5 L 425.5 320.0 L 425.5 376.0 L 419.0 381.5 L 317.0 439.5 Z M 224.0 460.5 L 220.0 460.5 L 214.0 457.5 L 167.0 429.5 L 127.0 407.5 L 117.5 400.0 L 117.5 252.0 L 125.0 244.5 L 167.0 220.5 L 169.5 222.0 L 169.5 371.0 L 178.0 377.5 L 197.0 387.5 L 272.5 432.0 L 224.0 460.5 Z M 333.0 278.5 L 330.5 277.0 L 331.5 130.0 L 326.0 123.5 L 241.0 75.5 L 228.5 67.0 L 231.0 64.5 L 276.0 38.5 L 283.0 39.5 L 323.0 63.5 L 375.0 92.5 L 380.0 95.5 L 382.5 99.0 L 382.5 247.0 L 381.5 250.0 L 377.0 253.5 L 333.0 278.5 Z M 103.0 354.5 L 55.0 327.5 L 52.5 324.0 L 52.5 212.0 L 57.0 207.5 L 167.0 145.5 L 181.0 136.5 L 185.0 134.5 L 191.0 135.5 L 235.5 164.0 L 186.0 193.5 L 153.0 211.5 L 141.0 219.5 L 108.0 237.5 L 104.5 241.0 L 103.5 244.0 L 104.5 249.0 L 104.5 353.0 L 103.0 354.5 Z M 317.0 364.5 L 313.0 364.5 L 307.0 361.5 L 264.5 336.0 L 270.0 331.5 L 303.0 313.5 L 355.0 282.5 L 369.0 275.5 L 381.0 267.5 L 393.0 261.5 L 395.5 259.0 L 395.5 147.0 L 398.0 145.5 L 443.0 171.5 L 447.5 176.0 L 447.5 287.0 L 444.0 291.5 L 439.0 294.5 L 317.0 364.5 Z M 316.0 195.5 L 311.0 193.5 L 306.0 189.5 L 258.0 161.5 L 253.0 157.5 L 248.0 155.5 L 190.0 119.5 L 184.0 119.5 L 110.0 161.5 L 108.0 161.5 L 99.0 167.5 L 88.0 172.5 L 86.5 171.0 L 87.5 115.0 L 92.0 111.5 L 94.0 111.5 L 110.0 101.5 L 159.0 75.5 L 186.0 59.5 L 190.0 59.5 L 283.0 115.5 L 288.0 119.5 L 303.0 127.5 L 318.5 138.0 L 319.5 140.0 L 318.5 143.0 L 318.5 183.0 L 317.5 184.0 L 317.5 194.0 L 316.0 195.5 Z"/>
</svg>
